<?xml version="1.0" encoding="UTF-8"?>
<!DOCTYPE svg PUBLIC "-//W3C//DTD SVG 1.1//EN" "http://www.w3.org/Graphics/SVG/1.1/DTD/svg11.dtd">
<!-- Creator: CorelDRAW X8 -->
<svg xmlns="http://www.w3.org/2000/svg" xml:space="preserve" width="100%" height="100%" version="1.1" shape-rendering="geometricPrecision" text-rendering="geometricPrecision" image-rendering="optimizeQuality" fill-rule="evenodd" clip-rule="evenodd"
viewBox="0 0 1270 1270"
 xmlns:xlink="http://www.w3.org/1999/xlink">
 <g id="Layer_x0020_1">
  <metadata id="CorelCorpID_0Corel-Layer"/>
  <rect fill="none" width="1270" height="1270"/>
  <path fill="#141414" d="M256 760c8,-38 9,-81 -12,-111 -6,-9 -53,-56 -65,-66 -27,86 7,160 77,177zm23 -45l4 46c76,-21 100,-86 79,-178 -18,18 -32,32 -53,51 -16,15 -35,45 -30,81zm-23 -96c8,-38 9,-81 -12,-110 -6,-10 -53,-57 -65,-67 -27,87 7,160 77,177zm23 -44l4 45c76,-21 100,-86 79,-178 -18,18 -32,32 -53,51 -16,15 -35,45 -30,82zm-23 -96c8,-39 9,-81 -12,-111 -6,-9 -53,-57 -65,-66 -27,86 7,159 77,177zm23 -45l4 45c76,-21 100,-86 79,-178 -18,18 -32,32 -53,52 -16,14 -35,44 -30,81zm-9 -68c27,-20 48,-50 40,-87 -3,-17 -31,-76 -38,-91l-42 91c-4,20 -2,37 9,52 10,15 19,27 31,35zm-115 435c9,48 40,86 98,77 11,-27 7,-63 -7,-83 -15,-23 -36,-29 -48,-48 -13,-8 -21,-14 -32,-27 -16,15 -12,53 -11,81zm209 -69c-11,6 -56,45 -64,55 -18,21 -26,57 -13,92 79,6 110,-57 98,-136 -1,-3 -2,-9 -4,-13 -3,-8 -2,-6 -4,-9 -7,10 -6,6 -13,11zm-128 167c20,33 23,56 24,103 -2,37 -6,89 -5,105 1,3 20,2 20,2l6 -117c0,-51 2,-55 24,-93 -29,7 -40,6 -69,0zm381 -126c11,-48 11,-100 -15,-137 -7,-12 -65,-70 -80,-82 -33,107 9,197 95,219zm28 -56l6 56c94,-26 123,-106 97,-219 -22,22 -39,39 -65,63 -20,18 -43,55 -38,100zm-28 -118c11,-48 11,-100 -15,-137 -7,-11 -65,-70 -80,-82 -33,107 9,197 95,219zm28 -56l6 56c94,-25 123,-106 97,-219 -22,22 -39,40 -65,63 -20,18 -43,56 -38,100zm-28 -118c11,-47 11,-100 -15,-137 -7,-11 -65,-69 -80,-81 -33,106 9,197 95,218zm28 -55l6 56c94,-26 123,-106 97,-219 -22,22 -39,39 -65,63 -20,18 -43,55 -38,100zm-10 -84c33,-25 59,-62 49,-107 -4,-21 -38,-94 -47,-112l-51 111c-6,25 -3,47 10,65 13,19 24,34 39,43zm-143 537c12,60 50,106 122,96 13,-34 8,-78 -9,-104 -18,-27 -44,-36 -59,-58 -17,-11 -26,-18 -40,-34 -20,19 -15,65 -14,100zm258 -85c-13,7 -68,55 -78,67 -23,27 -33,72 -17,114 98,8 136,-70 121,-167 -1,-4 -3,-12 -4,-17 -4,-10 -3,-7 -6,-11 -9,12 -7,8 -16,14zm-158 206c25,41 29,69 30,126 -2,47 -8,111 -6,130 1,5 25,3 25,3l7 -144c0,-63 3,-68 29,-115 -35,8 -49,8 -85,0zm393 -184c9,-38 9,-81 -12,-111 -6,-9 -53,-56 -65,-66 -27,86 7,160 77,177zm23 -45l5 46c76,-21 99,-86 78,-178 -18,18 -31,32 -53,51 -16,15 -35,45 -30,81zm-23 -96c9,-38 9,-81 -12,-110 -6,-10 -53,-57 -65,-67 -27,87 7,160 77,177zm23 -44l5 45c76,-21 99,-86 78,-178 -18,18 -31,32 -53,51 -16,15 -35,45 -30,82zm-23 -96c9,-39 9,-81 -12,-111 -6,-9 -53,-57 -65,-66 -27,86 7,159 77,177zm23 -45l5 45c76,-21 99,-86 78,-178 -18,18 -31,32 -53,52 -16,14 -35,44 -30,81zm-8 -68c26,-20 47,-50 39,-87 -3,-17 -31,-76 -38,-91l-42 91c-4,20 -1,37 9,52 11,15 20,27 32,35zm-116 435c10,48 40,86 99,77 10,-27 6,-63 -8,-83 -15,-23 -36,-29 -48,-48 -13,-8 -20,-14 -32,-27 -16,15 -12,53 -11,81zm209 -69c-11,6 -55,45 -64,55 -18,21 -26,57 -13,92 79,6 110,-57 98,-136 -1,-3 -2,-9 -4,-13 -3,-8 -2,-6 -4,-9 -7,10 -6,6 -13,11zm-128 167c20,33 24,56 24,103 -1,37 -6,89 -5,105 1,3 20,2 20,2l6 -117c0,-51 3,-55 24,-93 -29,7 -40,6 -69,0z"/>
 </g>
</svg>
