<?xml version="1.0" encoding="UTF-8"?>
<!DOCTYPE svg PUBLIC "-//W3C//DTD SVG 1.1//EN" "http://www.w3.org/Graphics/SVG/1.1/DTD/svg11.dtd">
<!-- Creator: CorelDRAW X8 -->
<svg xmlns="http://www.w3.org/2000/svg" xml:space="preserve" width="100%" height="100%" version="1.1" shape-rendering="geometricPrecision" text-rendering="geometricPrecision" image-rendering="optimizeQuality" fill-rule="evenodd" clip-rule="evenodd"
viewBox="0 0 1270 1270"
 xmlns:xlink="http://www.w3.org/1999/xlink">
 <g id="Layer_x0020_1">
  <metadata id="CorelCorpID_0Corel-Layer"/>
  <rect fill="none" width="1270" height="1270"/>
  <path fill="#2B2A29" d="M164 363l471 -284 471 284 -942 0zm116 59l153 0 0 535 -153 0 0 -535zm278 0l154 0 0 101c-4,-4 -8,-8 -14,-10 -11,-4 -23,0 -31,7l-1 1 0 0c-4,3 -9,2 -13,-1 -17,-17 -38,-18 -55,1 -1,0 -2,1 -3,2 -1,-1 -2,-2 -3,-2l0 -1 -1 0c-9,-8 -21,-14 -33,-10l0 -88zm154 435l0 100 -154 0 0 -100 154 0zm125 -435l153 0 0 535 -153 0 0 -535zm-590 594l776 0 0 59 -776 0 0 -59zm-100 116l976 0 0 59 -976 0 0 -59zm547 -542l-122 0c-18,0 -29,-86 7,-56 11,10 22,10 33,0 10,-12 19,-10 28,-1 12,12 29,11 39,2 28,-25 29,55 15,55zm-94 12l57 0c8,0 15,5 15,11l0 0c0,6 -7,11 -15,11l-57 0c-8,0 -15,-5 -15,-11l0 0c0,-6 7,-11 15,-11zm63 33c69,7 163,199 64,203l0 0 -4 0 -189 0 -4 0 0 0c-99,-4 -5,-196 64,-203l0 0 3 0 63 0 3 0 0 0zm-16 63c1,1 2,3 2,4l18 0 0 0c2,1 3,2 3,4l0 1 -1 1c-1,2 -3,5 -5,7 -1,2 -2,4 -4,4l-10 0c-1,4 -3,8 -5,11l0 0 0 0c-4,4 -8,9 -13,11 -5,2 -10,4 -15,4 1,1 1,1 1,2l36 42 0 3c0,2 -2,4 -4,4l-17 0 -1 -1c-10,-12 -20,-24 -30,-36 -3,-3 -6,-6 -8,-9 -1,-1 -3,-4 -3,-5l0 -11 1 -3 2 1c3,0 6,0 8,0 11,0 22,-2 26,-13 0,0 0,0 0,0l-38 0c-2,0 -3,-1 -3,-3l0 -1 0 -1c2,-3 4,-5 6,-8 1,-1 2,-4 4,-4l26 0c-1,-1 -3,-2 -5,-3 -3,0 -6,-1 -9,-1l-22 0 0 -5 1 -1c1,-2 3,-5 5,-7 1,-2 2,-4 4,-4l73 0 0 4 0 1c-2,3 -4,5 -5,8 -1,1 -2,2 -3,3l-1 1 -14 0z"/>
 </g>
</svg>
