<?xml version="1.0" encoding="UTF-8"?>
<!DOCTYPE svg PUBLIC "-//W3C//DTD SVG 1.1//EN" "http://www.w3.org/Graphics/SVG/1.1/DTD/svg11.dtd">
<!-- Creator: CorelDRAW X8 -->
<svg xmlns="http://www.w3.org/2000/svg" xml:space="preserve" width="100%" height="100%" version="1.1" shape-rendering="geometricPrecision" text-rendering="geometricPrecision" image-rendering="optimizeQuality" fill-rule="evenodd" clip-rule="evenodd"
viewBox="0 0 1270 1270"
 xmlns:xlink="http://www.w3.org/1999/xlink">
 <g id="Layer_x0020_1">
  <metadata id="CorelCorpID_0Corel-Layer"/>
  <rect fill="none" width="1270" height="1270"/>
  <path fill="black" d="M567 732c4,-18 15,-41 23,-59l25 -49c2,-4 2,-3 5,-6 -1,27 -7,54 -5,81 1,22 8,46 10,70 -19,-9 -41,-26 -58,-37zm201 -382c-23,-14 -188,-100 -205,-103 -10,34 -20,52 -6,92 41,113 191,84 211,11zm-76 -179c-17,-12 -6,-19 1,-38 -26,1 -47,5 -66,16 -21,14 -34,35 -40,39 -9,6 -21,4 -20,19 0,16 49,34 75,47 37,19 71,36 108,55 12,6 43,24 53,27 14,4 23,0 21,-15 -3,-14 -11,-8 -21,-21 10,-36 14,-91 -15,-115 -9,13 -3,15 -16,22 -30,-8 5,-34 5,-58 -9,-10 -35,-25 -53,-25 -17,23 -12,42 -32,47zm-330 337c25,-30 34,-32 85,-25 -5,10 -15,18 -23,30 -20,28 -48,92 -54,98 -11,-8 -52,-29 -59,-38l51 -65zm288 439l-47 -77c-48,-70 -62,-62 -49,-100 13,5 61,33 76,44 25,17 -3,51 44,76 36,13 39,-2 60,-10l131 81c-8,21 -30,43 -32,62l104 65c50,21 99,-6 118,-37 27,-46 -1,-100 -29,-122 -13,-9 -91,-58 -104,-60 -9,12 -28,43 -34,56l-135 -78c-16,-10 -12,-16 -16,-37 -5,-37 -21,-112 -20,-138 8,-171 3,-195 -147,-263 -47,-20 -118,-38 -177,-34 -64,5 -89,39 -126,85 -39,49 -84,93 -52,135 29,37 54,3 78,15 15,8 48,29 63,39 -4,22 -13,40 -17,68 -11,94 21,209 13,239 -7,21 -64,137 -82,177 -7,17 -20,41 -25,58 -15,53 36,96 85,72 21,-11 24,-23 36,-50l81 -178c9,-18 22,-41 25,-61 4,-23 -5,-62 1,-76 6,11 16,22 24,33 40,58 44,58 41,118 -1,34 -4,68 -8,101 -3,34 -11,70 7,95 14,20 47,34 78,17 28,-15 30,-38 34,-75 4,-34 7,-67 9,-100 1,-19 0,-45 0,-68 0,-28 3,-44 -8,-72z"/>
 </g>
</svg>
