<?xml version="1.0" encoding="UTF-8"?>
<!DOCTYPE svg PUBLIC "-//W3C//DTD SVG 1.1//EN" "http://www.w3.org/Graphics/SVG/1.1/DTD/svg11.dtd">
<!-- Creator: CorelDRAW X8 -->
<svg xmlns="http://www.w3.org/2000/svg" xml:space="preserve" width="100%" height="100%" version="1.1" shape-rendering="geometricPrecision" text-rendering="geometricPrecision" image-rendering="optimizeQuality" fill-rule="evenodd" clip-rule="evenodd"
viewBox="0 0 1270 1270"
 xmlns:xlink="http://www.w3.org/1999/xlink">
 <g id="Layer_x0020_1">
  <metadata id="CorelCorpID_0Corel-Layer"/>
  <rect fill="none" width="1270" height="1270"/>
  <path fill="#222021" d="M525 1166l8 1 194 0c0,-4 0,-8 0,-11 0,-96 77,-173 173,-173 51,0 97,22 129,58 3,-3 0,-1 6,-16l22 -79c18,-65 78,-297 94,-328l66 -3 28 -114 -1220 4 30 109 42 4 123 427c32,-37 79,-61 132,-61 96,0 173,77 173,173 0,3 0,6 0,9zm90 -331c0,3 1,4 3,5 20,-23 39,-44 46,-51 -3,-8 -3,-1 -7,-9l35 -41 -101 -80c37,-20 103,31 125,50 4,-1 5,-3 9,-3 1,0 6,4 8,4l12 -13c7,5 24,21 27,28 -5,5 -6,3 -11,10l11 10 -7 10c3,5 8,11 13,16 21,26 43,55 57,86 5,11 14,27 14,40 -30,-35 -73,-87 -109,-115 -6,8 -30,38 -37,41 -4,-3 -7,-7 -12,-9 -7,6 -16,17 -23,24 -4,5 -15,17 -26,29l40 45c3,6 23,29 29,33 9,-8 19,-18 28,-22 4,7 4,8 11,13 1,6 2,3 2,9l-56 48c-6,5 -14,12 -20,16 -2,-2 -6,-5 -8,-8 -3,-3 -5,-6 -8,-10 3,-5 5,-3 7,-10 8,-3 12,-6 18,-13 0,-1 0,-2 0,-2 -1,1 -1,-1 -1,-1 0,0 -1,-1 -1,-1l-28 -34c-5,-4 -4,-4 -8,-9l-26 -30c-11,12 -20,22 -23,26l-24 26c-8,9 -16,17 -24,26l-49 53 -24 -23c5,-13 59,-63 63,-75 5,-2 31,-30 57,-60l-9 -10c-2,-6 -71,-87 -83,-102 -4,-3 -4,-3 -6,-6l14 37c-6,7 -11,12 -19,20 -5,-3 -12,-11 -15,-15 -5,-7 -10,-11 -15,-17 -20,-25 -47,-44 -42,-76 6,-39 25,-59 66,-53 20,3 30,9 40,20 9,10 49,58 52,69 -8,4 -31,22 -34,29l51 57c3,4 4,5 9,9l9 9zm181 -568l103 0 4 67 107 0 3 55 84 1 3 86 -462 1 0 0 -5 0 0 0 -462 -1 3 -86 84 -1 3 -55 107 0 4 -67 103 0 1 -44 159 1 160 -1 1 44zm-444 776c63,0 114,51 114,114 0,62 -51,113 -114,113 -62,0 -113,-51 -113,-113 0,-63 51,-114 113,-114zm548 -1c63,0 113,51 113,114 0,62 -50,113 -113,113 -63,0 -114,-51 -114,-113 0,-63 51,-114 114,-114z"/>
 </g>
</svg>
